<svg width="56" height="61" viewBox="0 0 56 61" fill="none" xmlns="http://www.w3.org/2000/svg">
<g filter="url(#filter0_dddi_559_36366)">
<rect x="6" y="1" width="44" height="44" rx="6" fill="url(#paint0_linear_559_36366)"/>
<g clip-path="url(#clip0_559_36366)">
<path d="M32.9808 17L28.6507 14.5C28.1724 14.2239 27.3969 14.2239 26.9186 14.5L22.5885 17C22.1102 17.2761 22.1102 17.7239 22.5885 18L26.9186 20.5C27.3969 20.7761 28.1724 20.7761 28.6507 20.5L32.9808 18C33.4591 17.7239 33.4591 17.2761 32.9808 17Z" stroke="#878787" stroke-width="1.3" stroke-linecap="round" stroke-linejoin="round"/>
<path d="M42.5071 22.5L38.177 20C37.6987 19.7239 36.9232 19.7239 36.4449 20L32.1148 22.5C31.6365 22.7761 31.6365 23.2239 32.1148 23.5L36.4449 26C36.9232 26.2761 37.6987 26.2761 38.177 26L42.5071 23.5C42.9854 23.2239 42.9854 22.7761 42.5071 22.5Z" stroke="#878787" stroke-width="1.3" stroke-linecap="round" stroke-linejoin="round"/>
<path d="M32.9808 28L28.6507 25.5C28.1724 25.2239 27.3969 25.2239 26.9186 25.5L22.5885 28C22.1102 28.2761 22.1102 28.7239 22.5885 29L26.9186 31.5C27.3969 31.7761 28.1724 31.7761 28.6507 31.5L32.9808 29C33.4591 28.7239 33.4591 28.2761 32.9808 28Z" stroke="#878787" stroke-width="1.3" stroke-linecap="round" stroke-linejoin="round"/>
<path d="M23.4545 22.5L19.1244 20C18.6461 19.7239 17.8707 19.7239 17.3924 20L13.0622 22.5C12.5839 22.7761 12.5839 23.2239 13.0622 23.5L17.3924 26C17.8707 26.2761 18.6461 26.2761 19.1244 26L23.4545 23.5C23.9328 23.2239 23.9328 22.7761 23.4545 22.5Z" stroke="#878787" stroke-width="1.3" stroke-linecap="round" stroke-linejoin="round"/>
</g>
</g>
<defs>
<filter id="filter0_dddi_559_36366" x="0" y="0" width="56" height="61" filterUnits="userSpaceOnUse" color-interpolation-filters="sRGB">
<feFlood flood-opacity="0" result="BackgroundImageFix"/>
<feColorMatrix in="SourceAlpha" type="matrix" values="0 0 0 0 0 0 0 0 0 0 0 0 0 0 0 0 0 0 127 0" result="hardAlpha"/>
<feOffset dy="1"/>
<feGaussianBlur stdDeviation="1"/>
<feColorMatrix type="matrix" values="0 0 0 0 0 0 0 0 0 0 0 0 0 0 0 0 0 0 0.02 0"/>
<feBlend mode="normal" in2="BackgroundImageFix" result="effect1_dropShadow_559_36366"/>
<feColorMatrix in="SourceAlpha" type="matrix" values="0 0 0 0 0 0 0 0 0 0 0 0 0 0 0 0 0 0 127 0" result="hardAlpha"/>
<feOffset dy="4"/>
<feGaussianBlur stdDeviation="2"/>
<feColorMatrix type="matrix" values="0 0 0 0 0 0 0 0 0 0 0 0 0 0 0 0 0 0 0.02 0"/>
<feBlend mode="normal" in2="effect1_dropShadow_559_36366" result="effect2_dropShadow_559_36366"/>
<feColorMatrix in="SourceAlpha" type="matrix" values="0 0 0 0 0 0 0 0 0 0 0 0 0 0 0 0 0 0 127 0" result="hardAlpha"/>
<feOffset dy="10"/>
<feGaussianBlur stdDeviation="3"/>
<feColorMatrix type="matrix" values="0 0 0 0 0 0 0 0 0 0 0 0 0 0 0 0 0 0 0.01 0"/>
<feBlend mode="normal" in2="effect2_dropShadow_559_36366" result="effect3_dropShadow_559_36366"/>
<feBlend mode="normal" in="SourceGraphic" in2="effect3_dropShadow_559_36366" result="shape"/>
<feColorMatrix in="SourceAlpha" type="matrix" values="0 0 0 0 0 0 0 0 0 0 0 0 0 0 0 0 0 0 127 0" result="hardAlpha"/>
<feOffset dy="2"/>
<feGaussianBlur stdDeviation="2"/>
<feComposite in2="hardAlpha" operator="arithmetic" k2="-1" k3="1"/>
<feColorMatrix type="matrix" values="0 0 0 0 0 0 0 0 0 0 0 0 0 0 0 0 0 0 0.07 0"/>
<feBlend mode="normal" in2="shape" result="effect4_innerShadow_559_36366"/>
</filter>
<linearGradient id="paint0_linear_559_36366" x1="28" y1="1" x2="28" y2="45" gradientUnits="userSpaceOnUse">
<stop stop-color="white"/>
<stop offset="1" stop-color="#F6F6F6"/>
</linearGradient>
<clipPath id="clip0_559_36366">
<rect width="24" height="24" fill="white" transform="matrix(0.866025 0.5 -0.866025 0.5 27.7847 11)"/>
</clipPath>
</defs>
</svg>
